<svg width="35" height="29" viewBox="0 0 35 29" fill="none" xmlns="http://www.w3.org/2000/svg">
<path d="M3.47007 28.9277H2.91038C2.23876 28.9277 1.59201 28.7785 0.970128 28.48C0.323376 28.1815 0 27.8332 0 27.4352C0 27.0621 0.186563 26.7139 0.559689 26.3905C0.932816 26.0671 1.15669 25.8059 1.23132 25.6069C1.40544 25.1094 2.07707 24.5373 3.2462 23.8905C4.39045 23.2687 5.39789 22.9204 6.26852 22.8458C7.13915 22.796 8.60678 22.7214 10.6714 22.6219C12.7609 22.5224 15.9201 22.398 20.1488 22.2488C24.3776 22.0995 27.3004 22.0249 28.9173 22.0249C30.5342 22.0249 31.4919 22.0746 31.7904 22.1741C32.0889 22.2736 32.4247 22.5597 32.7978 23.0323C33.1958 23.5298 33.5441 23.8781 33.8426 24.0771C34.1659 24.301 34.3276 24.6492 34.3276 25.1218C34.3276 25.6193 34.0167 26.0298 33.3948 26.3532C32.7729 26.7014 31.6287 26.9502 29.962 27.0994C28.3203 27.2735 26.3427 27.4352 24.0293 27.5845C21.7408 27.7337 19.216 27.9203 16.4549 28.1442C10.9823 28.6168 6.65409 28.878 3.47007 28.9277Z" fill="#9DFF3C"/>
<path d="M9.67578 7.12671H9.1534C8.4569 7.12671 7.79771 6.97746 7.17583 6.67896C6.55396 6.35558 6.24302 5.9949 6.24302 5.59689C6.24302 5.17402 6.42958 4.77602 6.80271 4.40289C7.17583 4.02976 7.39971 3.7437 7.47433 3.5447C7.64846 2.99745 8.30765 2.37557 9.4519 1.67907C10.5962 0.982566 11.4917 0.60944 12.1384 0.559689C17.1134 0.186563 21.5785 0 25.5336 0C29.4888 0 31.6156 0.0746253 31.9141 0.223876C32.2126 0.348251 32.5484 0.65919 32.9215 1.15669C33.2947 1.65419 33.6429 2.03976 33.9663 2.31338C34.2897 2.56213 34.4514 2.9477 34.4514 3.47007C34.4514 3.96758 34.1156 4.41533 33.4439 4.81333C32.7972 5.21133 32.2375 5.42277 31.7649 5.44764C31.3171 5.47252 29.6754 5.62177 26.8396 5.8954C18.7552 6.66652 13.0339 7.07696 9.67578 7.12671ZM5.08633 17.8354H4.56395C3.86745 17.8354 3.20826 17.6862 2.58638 17.3877C1.9645 17.0643 1.65356 16.7036 1.65356 16.3056C1.65356 15.8827 1.84013 15.4847 2.21325 15.1116C2.58638 14.7385 2.83513 14.3654 2.95951 13.9922C3.08388 13.6191 3.7182 13.0843 4.86245 12.3878C6.03158 11.6913 6.92708 11.3182 7.54896 11.2684C12.3747 10.8953 16.5413 10.7087 20.0487 10.7087C23.581 10.7087 25.4963 10.7709 25.7948 10.8953C26.0933 11.0197 26.4292 11.343 26.8023 11.8654C27.1754 12.3629 27.5237 12.7485 27.847 13.0221C28.1704 13.2709 28.3321 13.644 28.3321 14.1415C28.3321 14.639 28.0087 15.0867 27.362 15.4847C26.7152 15.8827 26.168 16.1066 25.7202 16.1564C25.2725 16.1812 24.1655 16.2932 22.3994 16.4922C20.6333 16.6663 18.8422 16.8529 17.0264 17.0519C12.3001 17.5245 8.32009 17.7857 5.08633 17.8354Z" fill="#9DFF3C"/>
</svg>
