<svg width="18" height="24" viewBox="0 0 18 24" fill="none" xmlns="http://www.w3.org/2000/svg">
<path d="M8.99993 16.0786L8.54031 16.5382L8.99993 16.9979L9.45955 16.5382L8.99993 16.0786ZM9.64993 0.650042C9.64993 0.291057 9.35892 4.23146e-05 8.99993 4.22989e-05C8.64095 4.22832e-05 8.34993 0.291057 8.34993 0.650042L8.99993 0.650042L9.64993 0.650042ZM1.28564 8.36433L0.826025 8.82395L8.54031 16.5382L8.99993 16.0786L9.45955 15.619L1.74526 7.90471L1.28564 8.36433ZM8.99993 16.0786L9.45955 16.5382L17.1738 8.82395L16.7142 8.36433L16.2546 7.90471L8.54031 15.619L8.99993 16.0786ZM8.99993 16.0786L9.64993 16.0786L9.64993 0.650042L8.99993 0.650042L8.34993 0.650042L8.34993 16.0786L8.99993 16.0786Z" fill="#32384B"/>
<path d="M0 22.5073H18" stroke="#32384B" stroke-width="1.3"/>
</svg>
