<svg width="26" height="32" viewBox="0 0 26 32" fill="none" xmlns="http://www.w3.org/2000/svg">
<path d="M25.729 10.1642V28.8496C25.729 30.5895 24.3185 32 22.5786 32H3.1504C1.41047 32 2.36319e-09 30.5895 2.36319e-09 28.8496V3.1504C-6.66643e-05 1.41047 1.4104 0 3.1504 0H16.1629L25.729 10.1642Z" fill="#1F2A33"/>
<path d="M25.7282 10.1642H18.2624C17.1024 10.1642 16.1621 9.22387 16.1621 8.06393V0L25.7282 10.1642Z" fill="#6F6F6F"/>
<path d="M6.71277 22.4722V24.6012H5.20117V18.3291H7.70344C8.18337 18.3291 8.60797 18.4173 8.97717 18.5937C9.34637 18.7701 9.63144 19.0224 9.83451 19.3485C10.0355 19.6746 10.138 20.0438 10.138 20.4581C10.138 21.0693 9.91857 21.5575 9.47964 21.9246C9.04277 22.2897 8.44177 22.4722 7.67677 22.4722H6.71277ZM6.71277 21.3052H7.70344C7.99677 21.3052 8.2203 21.2334 8.3741 21.0857C8.5279 20.9401 8.60384 20.7329 8.60384 20.4663C8.60384 20.173 8.52384 19.9392 8.3659 19.7628C8.20797 19.5884 7.99264 19.5002 7.71984 19.4961H6.71277V21.3052Z" fill="white"/>
<path d="M10.9414 24.6012V18.3291H12.9617C13.5155 18.3291 14.0139 18.4542 14.4569 18.7065C14.8979 18.9567 15.2445 19.3116 15.4927 19.771C15.7409 20.2284 15.8659 20.7412 15.868 21.3093V21.5985C15.868 22.1728 15.747 22.6876 15.5049 23.143C15.2629 23.5983 14.9204 23.9532 14.4794 24.2116C14.0384 24.468 13.5461 24.5972 13.0047 24.6013H10.9414V24.6012ZM12.4531 19.4962V23.4383H12.9781C13.4129 23.4383 13.7452 23.2845 13.977 22.9748C14.2108 22.6671 14.3277 22.2077 14.3277 21.5985V21.3278C14.3277 20.7206 14.2108 20.2653 13.977 19.9576C13.7452 19.65 13.4068 19.4962 12.9617 19.4962H12.4531Z" fill="white"/>
<path d="M20.5968 22.103H18.1581V24.6012H16.6465V18.3291H20.8409V19.4962H18.1581V20.9401H20.5968V22.103Z" fill="white"/>
</svg>
