<svg width="188" height="86" viewBox="0 0 188 86" fill="none" xmlns="http://www.w3.org/2000/svg">
<path d="M1.98384 64.6631C16.3858 58.6516 52.1912 43.8485 92.9569 52.1643C118.664 57.4083 132.574 59.3294 144.632 59.4763C156.724 59.6236 166.965 57.9942 185.52 56.0365C186.297 55.9545 187.289 56.0757 187.289 56.0757C187.289 56.0757 187.289 56.9344 185.52 57.4664C167.126 61.2281 157.525 62.0869 144.632 62.9456C131.181 63.8415 117.975 63.9022 92.2361 58.6517C52.3887 50.5232 17.0628 63.0383 1.85244 66.7404C1.09741 66.924 0.269131 67.0559 0.0636701 66.3806C-0.141649 65.7053 0.0637587 65.5216 1.98384 64.6631Z" fill="#9DFF3C"/>
<path d="M152.729 0C157.056 0 161.073 0.374893 164.779 1.12468C168.506 1.85304 171.923 2.79563 175.03 3.95245V14.7494C173.808 14.0639 172.427 13.3998 170.884 12.7571C169.363 12.1144 167.703 11.5467 165.904 11.054C164.104 10.5613 162.176 10.165 160.12 9.86506C158.063 9.56514 155.899 9.41518 153.629 9.41518C150.801 9.41518 148.337 9.6187 146.238 10.0257C144.138 10.4328 142.339 10.979 140.839 11.6645C139.34 12.3501 138.108 13.1534 137.144 14.0746C136.18 14.9743 135.419 15.9383 134.862 16.9666C134.305 17.9949 133.92 19.0446 133.706 20.1157C133.491 21.1868 133.384 22.2258 133.384 23.2327C133.384 24.111 133.47 25.0643 133.641 26.0926C133.834 27.1209 134.177 28.1491 134.67 29.1774C135.184 30.2057 135.891 31.1911 136.79 32.1337C137.69 33.0763 138.858 33.9118 140.293 34.6402C141.75 35.3685 143.496 35.9576 145.531 36.4075C147.566 36.836 149.987 37.0502 152.793 37.0502C154.207 37.0502 155.439 37.0073 156.488 36.9217C157.538 36.836 158.491 36.7181 159.348 36.5682C160.227 36.4182 161.041 36.2361 161.79 36.0219C162.562 35.8077 163.354 35.5827 164.168 35.3471V30.0129H150.801V20.3407H176.09V42.8985C174.505 43.4341 172.727 43.9268 170.756 44.3767C168.806 44.8051 166.782 45.1693 164.683 45.4692C162.605 45.7906 160.516 46.0369 158.416 46.2083C156.317 46.3797 154.335 46.4654 152.472 46.4654C149.58 46.4654 146.805 46.2726 144.149 45.887C141.493 45.5014 139.008 44.9122 136.694 44.1196C134.402 43.3056 132.302 42.2773 130.396 41.0348C128.511 39.7923 126.893 38.3141 125.544 36.6003C124.215 34.8865 123.176 32.9264 122.427 30.7198C121.698 28.4919 121.334 25.9962 121.334 23.2327C121.334 20.4906 121.72 18.0056 122.491 15.7777C123.262 13.5497 124.333 11.5789 125.704 9.86506C127.097 8.15126 128.757 6.6731 130.685 5.4306C132.634 4.1881 134.766 3.17053 137.08 2.3779C139.415 1.56384 141.9 0.964012 144.535 0.578407C147.191 0.192802 149.922 0 152.729 0Z" fill="white"/>
<path d="M116.367 16.1957C116.367 18.4022 116.046 20.4374 115.403 22.3011C114.76 24.1435 113.721 25.7394 112.286 27.089C110.872 28.4172 109.03 29.4562 106.759 30.206C104.488 30.9558 101.725 31.3307 98.4684 31.3307H78.6741V45.2767H66.7524V1.125H98.4684C101.725 1.125 104.488 1.49989 106.759 2.24968C109.03 2.97804 110.872 4.01704 112.286 5.36665C113.721 6.69485 114.76 8.28011 115.403 10.1224C116.046 11.9648 116.367 13.9892 116.367 16.1957ZM104.317 16.3885C104.317 15.3602 104.167 14.4819 103.867 13.7536C103.588 13.0038 103.117 12.3932 102.453 11.9219C101.789 11.4506 100.921 11.1079 99.8502 10.8937C98.7791 10.658 97.4616 10.5402 95.8977 10.5402H78.6741V21.9155H95.8977C97.4616 21.9155 98.7791 21.8298 99.8502 21.6584C100.921 21.4656 101.789 21.155 102.453 20.7266C103.117 20.2767 103.588 19.6983 103.867 18.9914C104.167 18.2844 104.317 17.4168 104.317 16.3885Z" fill="white"/>
<path d="M42.0569 10.733V45.2767H30.1353V10.733H11.4014V1.125H60.823V10.733H42.0569Z" fill="white"/>
<path d="M184.131 85.7025V75.7098C184.131 74.8725 184.018 74.1858 183.79 73.6496C183.57 73.1061 183.25 72.6764 182.831 72.3606C182.42 72.0447 181.917 71.8244 181.322 71.6995C180.727 71.5747 180.059 71.5122 179.317 71.5122C178.458 71.5122 177.613 71.6187 176.783 71.8317C175.96 72.0374 175.182 72.3018 174.447 72.625C173.713 72.9408 173.037 73.2934 172.42 73.6826C171.803 74.0719 171.282 74.4465 170.856 74.8064V85.7025H169.479V70.5647H170.856V73.2199C171.37 72.8967 171.935 72.5589 172.552 72.2063C173.177 71.8464 173.845 71.5196 174.557 71.2258C175.277 70.9246 176.045 70.6786 176.86 70.4876C177.675 70.2967 178.535 70.2012 179.438 70.2012C180.459 70.2012 181.348 70.326 182.104 70.5758C182.868 70.8181 183.5 71.167 183.999 71.6224C184.506 72.0704 184.884 72.6176 185.134 73.264C185.384 73.903 185.509 74.6191 185.509 75.4123V85.7025H184.131Z" fill="white"/>
<path d="M166.113 78.1444C166.113 79.5032 165.867 80.6784 165.375 81.6699C164.883 82.6541 164.207 83.4694 163.348 84.1157C162.488 84.7547 161.475 85.2285 160.307 85.537C159.139 85.8455 157.879 85.9997 156.528 85.9997C155.169 85.9997 153.902 85.8455 152.727 85.537C151.552 85.2285 150.531 84.7547 149.664 84.1157C148.797 83.4694 148.118 82.6541 147.626 81.6699C147.134 80.6784 146.888 79.5032 146.888 78.1444C146.888 77.241 147.002 76.422 147.229 75.6875C147.457 74.9457 147.776 74.2847 148.188 73.7044C148.599 73.1168 149.095 72.61 149.675 72.184C150.263 71.758 150.913 71.4055 151.625 71.1264C152.345 70.8399 153.116 70.6306 153.939 70.4984C154.761 70.3588 155.624 70.2891 156.528 70.2891C157.879 70.2891 159.139 70.4433 160.307 70.7518C161.475 71.0603 162.488 71.5377 163.348 72.184C164.207 72.823 164.883 73.6383 165.375 74.6299C165.867 75.6141 166.113 76.7856 166.113 78.1444ZM164.692 78.1444C164.692 77.072 164.515 76.1245 164.163 75.3019C163.818 74.4793 163.303 73.7889 162.62 73.2307C161.937 72.6651 161.085 72.2391 160.064 71.9527C159.051 71.6589 157.872 71.512 156.528 71.512C155.184 71.512 153.998 71.6589 152.969 71.9527C151.948 72.2465 151.093 72.6761 150.402 73.2417C149.712 73.7999 149.19 74.494 148.838 75.324C148.485 76.1466 148.309 77.0867 148.309 78.1444C148.309 79.2167 148.485 80.1642 148.838 80.9868C149.19 81.8095 149.712 82.5036 150.402 83.0691C151.093 83.6273 151.948 84.0533 152.969 84.3471C153.998 84.6336 155.184 84.7768 156.528 84.7768C157.872 84.7768 159.051 84.6336 160.064 84.3471C161.085 84.0533 161.937 83.6273 162.62 83.0691C163.303 82.5036 163.818 81.8095 164.163 80.9868C164.515 80.1642 164.692 79.2167 164.692 78.1444Z" fill="white"/>
<path d="M142.144 85.7012V70.5635H143.521V85.7012H142.144Z" fill="white"/>
<path d="M132.96 71.8194V85.7012H131.594V71.8194H124.708V70.5635H139.846V71.8194H132.96Z" fill="white"/>
<path d="M121.375 85.7022V84.0276C120.846 84.3141 120.244 84.5785 119.568 84.8209C118.9 85.0632 118.191 85.2726 117.442 85.4488C116.7 85.6251 115.936 85.761 115.15 85.8565C114.364 85.952 113.593 85.9997 112.836 85.9997C111.852 85.9997 110.967 85.9116 110.181 85.7353C109.403 85.559 108.742 85.2983 108.198 84.9531C107.655 84.6005 107.236 84.1672 106.942 83.653C106.648 83.1315 106.501 82.5293 106.501 81.8462C106.501 81.1705 106.67 80.5755 107.008 80.0614C107.353 79.5399 107.842 79.0882 108.474 78.7063C109.105 78.317 109.865 77.9901 110.754 77.7257C111.65 77.454 112.649 77.2263 113.751 77.0427C114.853 76.8517 116.042 76.6974 117.32 76.5799C118.606 76.4551 119.957 76.3522 121.375 76.2714V75.1146C121.375 74.6446 121.287 74.2296 121.11 73.8697C120.934 73.5098 120.688 73.1976 120.372 72.9332C120.056 72.6614 119.685 72.4374 119.259 72.2612C118.833 72.0775 118.371 71.9306 117.871 71.8205C117.379 71.7103 116.858 71.6332 116.307 71.5891C115.763 71.5377 115.216 71.512 114.665 71.512C113.923 71.512 113.248 71.5487 112.638 71.6222C112.028 71.6956 111.459 71.7984 110.93 71.9306C110.402 72.0555 109.895 72.2024 109.41 72.3713C108.925 72.5403 108.437 72.7202 107.945 72.9112V71.3027C108.966 71.0309 110.053 70.7959 111.206 70.5975C112.366 70.3919 113.597 70.2891 114.897 70.2891C115.998 70.2891 117.027 70.3845 117.981 70.5755C118.936 70.7591 119.766 71.0566 120.471 71.4679C121.176 71.8792 121.731 72.4117 122.135 73.0654C122.539 73.7118 122.741 74.5013 122.741 75.4341V85.7022H121.375ZM121.375 77.4944C118.973 77.6266 116.92 77.8139 115.216 78.0562C113.519 78.2986 112.131 78.5961 111.052 78.9486C109.972 79.3012 109.179 79.7125 108.672 80.1826C108.172 80.6526 107.923 81.1851 107.923 81.7801C107.923 82.2648 108.044 82.6945 108.286 83.0691C108.536 83.4437 108.892 83.7595 109.355 84.0166C109.818 84.2663 110.38 84.4573 111.041 84.5895C111.702 84.7144 112.443 84.7768 113.266 84.7768C113.751 84.7768 114.25 84.7511 114.764 84.6997C115.286 84.6409 115.804 84.5638 116.318 84.4683C116.832 84.3655 117.339 84.248 117.838 84.1157C118.338 83.9762 118.808 83.8256 119.248 83.664C119.689 83.5024 120.089 83.3298 120.449 83.1462C120.817 82.9626 121.125 82.7753 121.375 82.5843V77.4944Z" fill="white"/>
<path d="M105.79 71.7331C105.577 71.667 105.28 71.5972 104.898 71.5238C104.523 71.443 104.039 71.4026 103.444 71.4026C102.621 71.4026 101.846 71.5054 101.119 71.7111C100.399 71.9094 99.7271 72.1812 99.1028 72.5264C98.4858 72.8716 97.9129 73.2755 97.3841 73.7383C96.8553 74.1936 96.3779 74.6784 95.9519 75.1925V85.703H94.5747V70.5653H95.9519V73.6501C96.444 73.1433 96.9765 72.6769 97.5494 72.2509C98.1296 71.8249 98.7392 71.4614 99.3782 71.1602C100.017 70.8517 100.686 70.613 101.383 70.4441C102.088 70.2678 102.816 70.1797 103.565 70.1797C103.822 70.1797 104.053 70.187 104.259 70.2017C104.465 70.2091 104.652 70.2238 104.821 70.2458C104.997 70.2605 105.162 70.2788 105.317 70.3009C105.471 70.3229 105.629 70.3486 105.79 70.378V71.7331Z" fill="white"/>
<path d="M91.2081 78.1444C91.2081 79.5032 90.962 80.6784 90.4699 81.6699C89.9778 82.6541 89.3021 83.4694 88.4427 84.1157C87.5834 84.7547 86.5698 85.2285 85.402 85.537C84.2341 85.8455 82.9745 85.9997 81.623 85.9997C80.2642 85.9997 78.9972 85.8455 77.8221 85.537C76.6469 85.2285 75.626 84.7547 74.7593 84.1157C73.8926 83.4694 73.2132 82.6541 72.7211 81.6699C72.229 80.6784 71.9829 79.5032 71.9829 78.1444C71.9829 77.241 72.0968 76.422 72.3244 75.6875C72.5521 74.9457 72.8716 74.2847 73.2829 73.7044C73.6943 73.1168 74.19 72.61 74.7703 72.184C75.3579 71.758 76.0079 71.4055 76.7203 71.1264C77.4401 70.8399 78.2113 70.6306 79.034 70.4984C79.8566 70.3588 80.7196 70.2891 81.623 70.2891C82.9745 70.2891 84.2341 70.4433 85.402 70.7518C86.5698 71.0603 87.5834 71.5377 88.4427 72.184C89.3021 72.823 89.9778 73.6383 90.4699 74.6299C90.962 75.6141 91.2081 76.7856 91.2081 78.1444ZM89.7868 78.1444C89.7868 77.072 89.6106 76.1245 89.258 75.3019C88.9128 74.4793 88.3987 73.7889 87.7156 73.2307C87.0325 72.6651 86.1805 72.2391 85.1596 71.9527C84.146 71.6589 82.9671 71.512 81.623 71.512C80.2789 71.512 79.0927 71.6589 78.0644 71.9527C77.0435 72.2465 76.1878 72.6761 75.4974 73.2417C74.807 73.7999 74.2855 74.494 73.933 75.324C73.5804 76.1466 73.4041 77.0867 73.4041 78.1444C73.4041 79.2167 73.5804 80.1642 73.933 80.9868C74.2855 81.8095 74.807 82.5036 75.4974 83.0691C76.1878 83.6273 77.0435 84.0533 78.0644 84.3471C79.0927 84.6336 80.2789 84.7768 81.623 84.7768C82.9671 84.7768 84.146 84.6336 85.1596 84.3471C86.1805 84.0533 87.0325 83.6273 87.7156 83.0691C88.3987 82.5036 88.9128 81.8095 89.258 80.9868C89.6106 80.1642 89.7868 79.2167 89.7868 78.1444Z" fill="white"/>
<path d="M69.9931 75.2128C69.9931 75.9693 69.8683 76.6377 69.6185 77.2179C69.3762 77.7982 68.9906 78.2866 68.4617 78.6832C67.9329 79.0798 67.2498 79.381 66.4125 79.5866C65.5825 79.7849 64.58 79.8841 63.4048 79.8841H56.6071V85.7012H55.23V70.5635H63.4048C64.58 70.5635 65.5825 70.6663 66.4125 70.872C67.2498 71.0703 67.9329 71.3641 68.4617 71.7533C68.9906 72.1426 69.3762 72.6274 69.6185 73.2076C69.8683 73.7879 69.9931 74.4562 69.9931 75.2128ZM68.5719 75.2128C68.5719 74.493 68.4507 73.9127 68.2083 73.472C67.9733 73.0313 67.6061 72.6935 67.1066 72.4584C66.6145 72.2161 65.9865 72.0545 65.2226 71.9737C64.4661 71.8929 63.5664 71.8525 62.5234 71.8525H56.6071V78.5951H62.5234C62.9274 78.5951 63.3571 78.5987 63.8124 78.6061C64.2752 78.6061 64.7305 78.5841 65.1786 78.54C65.6266 78.4886 66.0526 78.4041 66.4566 78.2866C66.8679 78.1617 67.2278 77.9744 67.5363 77.7247C67.8521 77.475 68.1018 77.1481 68.2854 76.7442C68.4764 76.3402 68.5719 75.8297 68.5719 75.2128Z" fill="white"/>
<path d="M53.3513 71.7331C53.1383 71.667 52.8409 71.5972 52.4589 71.5238C52.0843 71.443 51.5996 71.4026 51.0047 71.4026C50.182 71.4026 49.4071 71.5054 48.68 71.7111C47.9602 71.9094 47.2882 72.1812 46.6638 72.5264C46.0469 72.8716 45.474 73.2755 44.9451 73.7383C44.4163 74.1936 43.9389 74.6784 43.5129 75.1925V85.703H42.1357V70.5653H43.5129V73.6501C44.005 73.1433 44.5375 72.6769 45.1104 72.2509C45.6907 71.8249 46.3003 71.4614 46.9393 71.1602C47.5783 70.8517 48.2467 70.613 48.9444 70.4441C49.6495 70.2678 50.3767 70.1797 51.1258 70.1797C51.3829 70.1797 51.6143 70.187 51.8199 70.2017C52.0256 70.2091 52.2129 70.2238 52.3818 70.2458C52.5581 70.2605 52.7233 70.2788 52.8776 70.3009C53.0318 70.3229 53.1897 70.3486 53.3513 70.378V71.7331Z" fill="white"/>
<path d="M38.7691 78.1444C38.7691 79.5032 38.523 80.6784 38.0309 81.6699C37.5388 82.6541 36.8631 83.4694 36.0038 84.1157C35.1444 84.7547 34.1308 85.2285 32.963 85.537C31.7952 85.8455 30.5355 85.9997 29.1841 85.9997C27.8253 85.9997 26.5583 85.8455 25.3831 85.537C24.2079 85.2285 23.187 84.7547 22.3203 84.1157C21.4536 83.4694 20.7742 82.6541 20.2821 81.6699C19.79 80.6784 19.5439 79.5032 19.5439 78.1444C19.5439 77.241 19.6578 76.422 19.8855 75.6875C20.1132 74.9457 20.4327 74.2847 20.844 73.7044C21.2553 73.1168 21.7511 72.61 22.3313 72.184C22.9189 71.758 23.5689 71.4055 24.2814 71.1264C25.0012 70.8399 25.7724 70.6306 26.595 70.4984C27.4176 70.3588 28.2806 70.2891 29.1841 70.2891C30.5355 70.2891 31.7952 70.4433 32.963 70.7518C34.1308 71.0603 35.1444 71.5377 36.0038 72.184C36.8631 72.823 37.5388 73.6383 38.0309 74.6299C38.523 75.6141 38.7691 76.7856 38.7691 78.1444ZM37.3479 78.1444C37.3479 77.072 37.1716 76.1245 36.819 75.3019C36.4738 74.4793 35.9597 73.7889 35.2766 73.2307C34.5935 72.6651 33.7415 72.2391 32.7206 71.9527C31.707 71.6589 30.5282 71.512 29.1841 71.512C27.84 71.512 26.6538 71.6589 25.6255 71.9527C24.6045 72.2465 23.7489 72.6761 23.0585 73.2417C22.368 73.7999 21.8466 74.494 21.494 75.324C21.1415 76.1466 20.9652 77.0867 20.9652 78.1444C20.9652 79.2167 21.1415 80.1642 21.494 80.9868C21.8466 81.8095 22.368 82.5036 23.0585 83.0691C23.7489 83.6273 24.6045 84.0533 25.6255 84.3471C26.6538 84.6336 27.84 84.7768 29.1841 84.7768C30.5282 84.7768 31.707 84.6336 32.7206 84.3471C33.7415 84.0533 34.5935 83.6273 35.2766 83.0691C35.9597 82.5036 36.4738 81.8095 36.819 80.9868C37.1716 80.1642 37.3479 79.2167 37.3479 78.1444Z" fill="white"/>
<path d="M17.1923 84.5013C16.6635 84.7217 16.1383 84.9237 15.6169 85.1073C15.1027 85.2909 14.5665 85.4488 14.0083 85.581C13.4501 85.7133 12.8625 85.8161 12.2456 85.8895C11.6286 85.963 10.9566 85.9997 10.2294 85.9997C9.33334 85.9997 8.47032 85.9263 7.64035 85.7794C6.81773 85.6325 6.05019 85.4121 5.33774 85.1183C4.62529 84.8245 3.97894 84.461 3.3987 84.0276C2.81846 83.5869 2.31901 83.0764 1.90035 82.4962C1.48904 81.916 1.16954 81.2623 0.941846 80.5351C0.721501 79.808 0.611328 79.0111 0.611328 78.1444C0.611328 77.2777 0.721501 76.4808 0.941846 75.7536C1.16954 75.0265 1.48904 74.3728 1.90035 73.7926C2.31901 73.2123 2.81846 72.7055 3.3987 72.2722C3.97894 71.8315 4.62529 71.4642 5.33774 71.1704C6.05019 70.8767 6.81773 70.6563 7.64035 70.5094C8.46297 70.3625 9.32599 70.2891 10.2294 70.2891C10.9566 70.2891 11.6286 70.3258 12.2456 70.3992C12.8625 70.4727 13.4501 70.5755 14.0083 70.7077C14.5665 70.8399 15.1027 70.9978 15.6169 71.1815C16.1383 71.3577 16.6635 71.556 17.1923 71.7764V73.429C16.7737 73.1646 16.3256 72.9148 15.8482 72.6798C15.3708 72.4448 14.853 72.2391 14.2948 72.0628C13.7439 71.8866 13.1527 71.747 12.521 71.6442C11.8893 71.5414 11.2136 71.4899 10.4938 71.4899C9.03955 71.4899 7.7799 71.6479 6.7149 71.9637C5.6499 72.2795 4.76851 72.7276 4.07075 73.3078C3.38034 73.8807 2.8662 74.5785 2.52833 75.4011C2.19782 76.2164 2.03256 77.1308 2.03256 78.1444C2.03256 79.158 2.19782 80.0724 2.52833 80.8877C2.8662 81.703 3.38034 82.4007 4.07075 82.981C4.76851 83.5539 5.6499 83.9982 6.7149 84.3141C7.7799 84.6225 9.03955 84.7768 10.4938 84.7768C11.2136 84.7768 11.893 84.7254 12.532 84.6225C13.1784 84.5197 13.7806 84.3802 14.3389 84.2039C14.9044 84.0276 15.4222 83.8256 15.8923 83.5979C16.3697 83.3629 16.8031 83.1168 17.1923 82.8598V84.5013Z" fill="white"/>
</svg>
