<svg width="98" height="51" viewBox="0 0 98 51" fill="none" xmlns="http://www.w3.org/2000/svg">
<path d="M1.03806 39.8356C8.57397 36.69 27.3093 28.9442 48.6402 33.2955C62.0915 36.0394 69.37 37.0446 75.6794 37.1215C82.0069 37.1986 87.3652 36.346 97.0743 35.3216C97.481 35.2787 98 35.3421 98 35.3421C98 35.3421 98 35.7915 97.0743 36.0698C87.4498 38.0382 82.4259 38.4875 75.6794 38.9369C68.6414 39.4056 61.7311 39.4374 48.2631 36.6901C27.4127 32.4368 8.9282 38.9854 0.969301 40.9225C0.574227 41.0186 0.140824 41.0876 0.0333157 40.7342C-0.0741185 40.3809 0.0333621 40.2848 1.03806 39.8356Z" fill="#9DFF3C"/>
<path d="M79.9157 6C82.18 6 84.2818 6.19617 86.221 6.5885C88.1715 6.96962 89.9594 7.46283 91.5847 8.06814V13.7177C90.9458 13.359 90.2228 13.0115 89.4157 12.6752C88.6198 12.3389 87.7511 12.0419 86.8095 11.7841C85.8679 11.5263 84.8591 11.3189 83.783 11.1619C82.7069 11.005 81.5747 10.9265 80.3865 10.9265C78.9069 10.9265 77.6178 11.033 76.5193 11.246C75.4207 11.459 74.4791 11.7448 73.6945 12.1035C72.9098 12.4622 72.2653 12.8826 71.7608 13.3646C71.2564 13.8354 70.8585 14.3398 70.567 14.8779C70.2756 15.4159 70.0738 15.9652 69.9617 16.5257C69.8496 17.0861 69.7936 17.6298 69.7936 18.1566C69.7936 18.6162 69.8384 19.115 69.9281 19.6531C70.029 20.1911 70.2083 20.7292 70.4662 21.2673C70.7352 21.8053 71.1051 22.3209 71.5759 22.8142C72.0467 23.3074 72.6576 23.7445 73.4086 24.1257C74.1709 24.5068 75.0844 24.815 76.1493 25.0504C77.2142 25.2746 78.4809 25.3867 79.9493 25.3867C80.6892 25.3867 81.3337 25.3643 81.883 25.3195C82.4322 25.2746 82.931 25.213 83.3794 25.1345C83.839 25.056 84.265 24.9608 84.6573 24.8487C85.0608 24.7366 85.4756 24.6189 85.9016 24.4956V21.7044H78.9069V16.6434H92.1396V28.4469C91.3101 28.7271 90.3797 28.985 89.3485 29.2203C88.3284 29.4445 87.2691 29.6351 86.1706 29.792C85.0833 29.9602 83.9903 30.0891 82.8918 30.1788C81.7933 30.2684 80.7564 30.3133 79.7812 30.3133C78.2679 30.3133 76.8163 30.2124 75.4263 30.0106C74.0364 29.8088 72.7361 29.5006 71.5254 29.0858C70.326 28.6599 69.2275 28.1218 68.2299 27.4717C67.2434 26.8215 66.3971 26.0481 65.6909 25.1513C64.996 24.2546 64.4523 23.2289 64.06 22.0743C63.6788 20.9086 63.4883 19.6027 63.4883 18.1566C63.4883 16.7218 63.6901 15.4215 64.0936 14.2558C64.4971 13.09 65.0576 12.0587 65.775 11.1619C66.5036 10.2652 67.3724 9.49174 68.3812 8.84159C69.4013 8.19144 70.5166 7.659 71.7272 7.24425C72.949 6.81829 74.2493 6.50442 75.6281 6.30265C77.0181 6.10088 78.4473 6 79.9157 6Z" fill="#1F2A33"/>
<path d="M60.8888 14.4747C60.8888 15.6293 60.7206 16.6942 60.3844 17.6694C60.0481 18.6334 59.5044 19.4685 58.7534 20.1747C58.0136 20.8697 57.0496 21.4133 55.8614 21.8057C54.6732 22.198 53.2271 22.3942 51.5233 22.3942H41.1658V29.6915H34.9277V6.58887H51.5233C53.2271 6.58887 54.6732 6.78503 55.8614 7.17736C57.0496 7.55848 58.0136 8.10214 58.7534 8.80834C59.5044 9.50332 60.0481 10.3328 60.3844 11.2968C60.7206 12.2608 60.8888 13.3201 60.8888 14.4747ZM54.5835 14.5756C54.5835 14.0375 54.505 13.578 54.3481 13.1968C54.2024 12.8045 53.9558 12.485 53.6083 12.2384C53.2608 11.9918 52.8068 11.8125 52.2463 11.7004C51.6858 11.5771 50.9965 11.5154 50.1782 11.5154H41.1658V17.4676H50.1782C50.9965 17.4676 51.6858 17.4228 52.2463 17.3331C52.8068 17.2322 53.2608 17.0697 53.6083 16.8455C53.9558 16.6101 54.2024 16.3074 54.3481 15.9375C54.505 15.5676 54.5835 15.1136 54.5835 14.5756Z" fill="#1F2A33"/>
<path d="M22.0055 11.6163V29.6915H15.7675V11.6163H5.96484V6.58887H31.825V11.6163H22.0055Z" fill="#1F2A33"/>
<path d="M96.3489 50.8445V45.6158C96.3489 45.1777 96.2893 44.8183 96.1702 44.5378C96.0549 44.2534 95.8877 44.0285 95.6686 43.8633C95.4534 43.698 95.1902 43.5827 94.8789 43.5174C94.5676 43.4521 94.2178 43.4194 93.8297 43.4194C93.38 43.4194 92.938 43.4751 92.5037 43.5866C92.0733 43.6942 91.6659 43.8325 91.2816 44.0016C90.8973 44.1669 90.5437 44.3514 90.2209 44.5551C89.898 44.7588 89.6252 44.9548 89.4022 45.1431V50.8445H88.6816V42.9236H89.4022V44.3129C89.6713 44.1438 89.9672 43.9671 90.29 43.7826C90.6167 43.5943 90.9664 43.4232 91.3392 43.2695C91.7159 43.1119 92.1175 42.9832 92.5441 42.8833C92.9707 42.7833 93.4203 42.7334 93.8931 42.7334C94.4273 42.7334 94.8923 42.7987 95.2882 42.9294C95.6879 43.0562 96.0184 43.2388 96.2797 43.477C96.5449 43.7115 96.7428 43.9978 96.8735 44.336C97.0042 44.6704 97.0695 45.0451 97.0695 45.4602V50.8445H96.3489Z" fill="#1F2A33"/>
<path d="M86.921 46.8896C86.921 47.6006 86.7922 48.2156 86.5348 48.7344C86.2773 49.2494 85.9237 49.676 85.474 50.0142C85.0244 50.3485 84.494 50.5964 83.8829 50.7579C83.2718 50.9193 82.6127 51 81.9056 51C81.1946 51 80.5316 50.9193 79.9167 50.7579C79.3018 50.5964 78.7676 50.3485 78.3141 50.0142C77.8606 49.676 77.5051 49.2494 77.2476 48.7344C76.9901 48.2156 76.8613 47.6006 76.8613 46.8896C76.8613 46.4169 76.9209 45.9884 77.04 45.6041C77.1592 45.2159 77.3264 44.87 77.5416 44.5664C77.7568 44.2589 78.0162 43.9938 78.3198 43.7709C78.6273 43.5479 78.9674 43.3635 79.3402 43.2174C79.7169 43.0675 80.1204 42.958 80.5508 42.8888C80.9813 42.8158 81.4329 42.7793 81.9056 42.7793C82.6127 42.7793 83.2718 42.86 83.8829 43.0214C84.494 43.1828 85.0244 43.4326 85.474 43.7709C85.9237 44.1052 86.2773 44.5318 86.5348 45.0506C86.7922 45.5656 86.921 46.1786 86.921 46.8896ZM86.1773 46.8896C86.1773 46.3285 86.0851 45.8327 85.9006 45.4023C85.72 44.9719 85.451 44.6106 85.0935 44.3185C84.7361 44.0226 84.2903 43.7997 83.7561 43.6498C83.2257 43.4961 82.6089 43.4192 81.9056 43.4192C81.2023 43.4192 80.5816 43.4961 80.0435 43.6498C79.5093 43.8035 79.0616 44.0283 78.7003 44.3243C78.3391 44.6164 78.0662 44.9795 77.8817 45.4138C77.6972 45.8443 77.605 46.3362 77.605 46.8896C77.605 47.4507 77.6972 47.9465 77.8817 48.377C78.0662 48.8074 78.3391 49.1706 78.7003 49.4665C79.0616 49.7586 79.5093 49.9815 80.0435 50.1352C80.5816 50.2851 81.2023 50.3601 81.9056 50.3601C82.6089 50.3601 83.2257 50.2851 83.7561 50.1352C84.2903 49.9815 84.7361 49.7586 85.0935 49.4665C85.451 49.1706 85.72 48.8074 85.9006 48.377C86.0851 47.9465 86.1773 47.4507 86.1773 46.8896Z" fill="#1F2A33"/>
<path d="M74.3789 50.8447V42.9238H75.0995V50.8447H74.3789Z" fill="#1F2A33"/>
<path d="M69.5737 43.581V50.8447H68.8589V43.581H65.2559V42.9238H73.1768V43.581H69.5737Z" fill="#1F2A33"/>
<path d="M63.5111 50.8444V49.9681C63.2344 50.118 62.9192 50.2564 62.5656 50.3832C62.2159 50.51 61.845 50.6196 61.453 50.7118C61.0648 50.804 60.6652 50.8751 60.2539 50.9251C59.8427 50.9751 59.4392 51 59.0433 51C58.5283 51 58.0652 50.9539 57.654 50.8617C57.2466 50.7694 56.9007 50.633 56.6163 50.4524C56.3319 50.2679 56.1128 50.0412 55.9591 49.7721C55.8054 49.4993 55.7285 49.1841 55.7285 48.8267C55.7285 48.4731 55.8169 48.1618 55.9937 47.8928C56.1743 47.6199 56.4299 47.3836 56.7604 47.1837C57.0909 46.98 57.4887 46.809 57.9537 46.6706C58.4226 46.5284 58.9453 46.4093 59.5218 46.3132C60.0983 46.2133 60.7209 46.1326 61.3896 46.0711C62.0622 46.0058 62.7693 45.9519 63.5111 45.9097V45.3044C63.5111 45.0584 63.4649 44.8413 63.3727 44.6529C63.2805 44.4646 63.1517 44.3013 62.9865 44.1629C62.8212 44.0207 62.6271 43.9035 62.4042 43.8113C62.1813 43.7152 61.9392 43.6383 61.6778 43.5807C61.4203 43.523 61.1475 43.4827 60.8592 43.4596C60.5748 43.4327 60.2885 43.4193 60.0003 43.4193C59.6121 43.4193 59.2585 43.4385 58.9395 43.4769C58.6206 43.5153 58.3227 43.5691 58.046 43.6383C57.7693 43.7037 57.5041 43.7805 57.2504 43.8689C56.9968 43.9573 56.7412 44.0515 56.4837 44.1514V43.3097C57.0179 43.1675 57.5867 43.0445 58.1901 42.9408C58.7973 42.8332 59.4411 42.7794 60.1213 42.7794C60.6978 42.7794 61.2359 42.8293 61.7355 42.9292C62.2351 43.0253 62.6694 43.181 63.0383 43.3962C63.4073 43.6114 63.6975 43.8901 63.9088 44.2321C64.1202 44.5703 64.2259 44.9835 64.2259 45.4715V50.8444H63.5111ZM63.5111 46.5496C62.2543 46.6188 61.1801 46.7168 60.2885 46.8436C59.4007 46.9704 58.6744 47.1261 58.1094 47.3105C57.5444 47.495 57.1294 47.7102 56.8642 47.9562C56.6029 48.2022 56.4722 48.4808 56.4722 48.7921C56.4722 49.0458 56.5356 49.2706 56.6624 49.4666C56.7931 49.6626 56.9795 49.8279 57.2216 49.9624C57.4637 50.093 57.7577 50.193 58.1036 50.2621C58.4495 50.3275 58.8377 50.3601 59.2681 50.3601C59.5218 50.3601 59.7831 50.3467 60.0522 50.3198C60.325 50.289 60.596 50.2487 60.865 50.1987C61.134 50.1449 61.3992 50.0834 61.6605 50.0142C61.9219 49.9412 62.1679 49.8624 62.3985 49.7779C62.629 49.6933 62.8385 49.603 63.0268 49.5069C63.219 49.4109 63.3804 49.3129 63.5111 49.2129V46.5496Z" fill="#1F2A33"/>
<path d="M55.3569 43.5345C55.2454 43.4999 55.0898 43.4634 54.8899 43.425C54.6939 43.3827 54.4403 43.3616 54.129 43.3616C53.6985 43.3616 53.2931 43.4154 52.9126 43.523C52.536 43.6268 52.1843 43.769 51.8576 43.9496C51.5348 44.1302 51.235 44.3416 50.9583 44.5837C50.6816 44.822 50.4318 45.0757 50.2089 45.3447V50.8444H49.4883V42.9234H50.2089V44.5376C50.4664 44.2724 50.745 44.0284 51.0448 43.8055C51.3484 43.5826 51.6674 43.3923 52.0018 43.2348C52.3361 43.0733 52.6859 42.9484 53.051 42.86C53.4199 42.7678 53.8004 42.7217 54.1924 42.7217C54.3269 42.7217 54.448 42.7255 54.5556 42.7332C54.6632 42.7371 54.7612 42.7447 54.8496 42.7563C54.9418 42.764 55.0283 42.7736 55.109 42.7851C55.1897 42.7966 55.2724 42.8101 55.3569 42.8254V43.5345Z" fill="#1F2A33"/>
<path d="M47.7257 46.8896C47.7257 47.6006 47.5969 48.2156 47.3394 48.7344C47.0819 49.2494 46.7284 49.676 46.2787 50.0142C45.829 50.3485 45.2987 50.5964 44.6876 50.7579C44.0765 50.9193 43.4174 51 42.7103 51C41.9993 51 41.3363 50.9193 40.7214 50.7579C40.1065 50.5964 39.5723 50.3485 39.1188 50.0142C38.6653 49.676 38.3098 49.2494 38.0523 48.7344C37.7948 48.2156 37.666 47.6006 37.666 46.8896C37.666 46.4169 37.7256 45.9884 37.8447 45.6041C37.9639 45.2159 38.131 44.87 38.3463 44.5664C38.5615 44.2589 38.8209 43.9938 39.1245 43.7709C39.432 43.5479 39.7721 43.3635 40.1449 43.2174C40.5215 43.0675 40.9251 42.958 41.3555 42.8888C41.786 42.8158 42.2375 42.7793 42.7103 42.7793C43.4174 42.7793 44.0765 42.86 44.6876 43.0214C45.2987 43.1828 45.829 43.4326 46.2787 43.7709C46.7284 44.1052 47.0819 44.5318 47.3394 45.0506C47.5969 45.5656 47.7257 46.1786 47.7257 46.8896ZM46.982 46.8896C46.982 46.3285 46.8898 45.8327 46.7053 45.4023C46.5247 44.9719 46.2556 44.6106 45.8982 44.3185C45.5408 44.0226 45.095 43.7997 44.5608 43.6498C44.0304 43.4961 43.4136 43.4192 42.7103 43.4192C42.0069 43.4192 41.3863 43.4961 40.8482 43.6498C40.314 43.8035 39.8663 44.0283 39.505 44.3243C39.1437 44.6164 38.8709 44.9795 38.6864 45.4138C38.5019 45.8443 38.4097 46.3362 38.4097 46.8896C38.4097 47.4507 38.5019 47.9465 38.6864 48.377C38.8709 48.8074 39.1437 49.1706 39.505 49.4665C39.8663 49.7586 40.314 49.9815 40.8482 50.1352C41.3863 50.2851 42.0069 50.3601 42.7103 50.3601C43.4136 50.3601 44.0304 50.2851 44.5608 50.1352C45.095 49.9815 45.5408 49.7586 45.8982 49.4665C46.2556 49.1706 46.5247 48.8074 46.7053 48.377C46.8898 47.9465 46.982 47.4507 46.982 46.8896Z" fill="#1F2A33"/>
<path d="M36.6253 45.3566C36.6253 45.7524 36.56 46.1022 36.4293 46.4058C36.3025 46.7094 36.1007 46.965 35.824 47.1725C35.5473 47.3801 35.1898 47.5376 34.7517 47.6452C34.3174 47.749 33.7928 47.8009 33.1779 47.8009H29.621V50.8447H28.9004V42.9238H33.1779C33.7928 42.9238 34.3174 42.9776 34.7517 43.0852C35.1898 43.189 35.5473 43.3427 35.824 43.5464C36.1007 43.7501 36.3025 44.0038 36.4293 44.3074C36.56 44.611 36.6253 44.9607 36.6253 45.3566ZM35.8816 45.3566C35.8816 44.98 35.8182 44.6763 35.6914 44.4457C35.5684 44.2152 35.3762 44.0384 35.1149 43.9154C34.8574 43.7886 34.5288 43.704 34.1291 43.6617C33.7333 43.6195 33.2625 43.5983 32.7167 43.5983H29.621V47.1264H32.7167C32.9281 47.1264 33.1529 47.1283 33.3912 47.1322C33.6333 47.1322 33.8716 47.1206 34.1061 47.0976C34.3405 47.0707 34.5634 47.0265 34.7748 46.965C34.99 46.8997 35.1783 46.8017 35.3397 46.671C35.505 46.5403 35.6357 46.3693 35.7317 46.1579C35.8317 45.9465 35.8816 45.6794 35.8816 45.3566Z" fill="#1F2A33"/>
<path d="M27.9174 43.5345C27.806 43.4999 27.6503 43.4634 27.4505 43.425C27.2545 43.3827 27.0008 43.3616 26.6895 43.3616C26.2591 43.3616 25.8536 43.4154 25.4732 43.523C25.0965 43.6268 24.7449 43.769 24.4182 43.9496C24.0954 44.1302 23.7956 44.3416 23.5189 44.5837C23.2422 44.822 22.9923 45.0757 22.7694 45.3447V50.8444H22.0488V42.9234H22.7694V44.5376C23.0269 44.2724 23.3056 44.0284 23.6053 43.8055C23.909 43.5826 24.2279 43.3923 24.5623 43.2348C24.8967 43.0733 25.2464 42.9484 25.6115 42.86C25.9805 42.7678 26.3609 42.7217 26.7529 42.7217C26.8875 42.7217 27.0085 42.7255 27.1161 42.7332C27.2237 42.7371 27.3217 42.7447 27.4101 42.7563C27.5024 42.764 27.5889 42.7736 27.6696 42.7851C27.7503 42.7966 27.8329 42.8101 27.9174 42.8254V43.5345Z" fill="#1F2A33"/>
<path d="M20.2862 46.8896C20.2862 47.6006 20.1575 48.2156 19.9 48.7344C19.6425 49.2494 19.2889 49.676 18.8393 50.0142C18.3896 50.3485 17.8592 50.5964 17.2482 50.7579C16.6371 50.9193 15.978 51 15.2708 51C14.5598 51 13.8969 50.9193 13.2819 50.7579C12.667 50.5964 12.1328 50.3485 11.6793 50.0142C11.2258 49.676 10.8703 49.2494 10.6128 48.7344C10.3553 48.2156 10.2266 47.6006 10.2266 46.8896C10.2266 46.4169 10.2861 45.9884 10.4053 45.6041C10.5244 45.2159 10.6916 44.87 10.9068 44.5664C11.122 44.2589 11.3815 43.9938 11.6851 43.7709C11.9925 43.5479 12.3327 43.3635 12.7054 43.2174C13.0821 43.0675 13.4856 42.958 13.9161 42.8888C14.3465 42.8158 14.7981 42.7793 15.2708 42.7793C15.978 42.7793 16.6371 42.86 17.2482 43.0214C17.8592 43.1828 18.3896 43.4326 18.8393 43.7709C19.2889 44.1052 19.6425 44.5318 19.9 45.0506C20.1575 45.5656 20.2862 46.1786 20.2862 46.8896ZM19.5426 46.8896C19.5426 46.3285 19.4503 45.8327 19.2659 45.4023C19.0852 44.9719 18.8162 44.6106 18.4588 44.3185C18.1014 44.0226 17.6555 43.7997 17.1213 43.6498C16.591 43.4961 15.9741 43.4192 15.2708 43.4192C14.5675 43.4192 13.9468 43.4961 13.4088 43.6498C12.8746 43.8035 12.4268 44.0283 12.0656 44.3243C11.7043 44.6164 11.4314 44.9795 11.2469 45.4138C11.0625 45.8443 10.9702 46.3362 10.9702 46.8896C10.9702 47.4507 11.0625 47.9465 11.2469 48.377C11.4314 48.8074 11.7043 49.1706 12.0656 49.4665C12.4268 49.7586 12.8746 49.9815 13.4088 50.1352C13.9468 50.2851 14.5675 50.3601 15.2708 50.3601C15.9741 50.3601 16.591 50.2851 17.1213 50.1352C17.6555 49.9815 18.1014 49.7586 18.4588 49.4665C18.8162 49.1706 19.0852 48.8074 19.2659 48.377C19.4503 47.9465 19.5426 47.4507 19.5426 46.8896Z" fill="#1F2A33"/>
<path d="M8.99642 50.216C8.7197 50.3313 8.44491 50.437 8.17204 50.5331C7.90302 50.6292 7.62246 50.7118 7.33037 50.781C7.03829 50.8502 6.73083 50.904 6.408 50.9424C6.08517 50.9808 5.73351 51 5.35303 51C4.88415 51 4.43257 50.9616 3.99829 50.8847C3.56785 50.8079 3.16623 50.6926 2.79343 50.5388C2.42064 50.3851 2.08244 50.1949 1.77882 49.9681C1.4752 49.7375 1.21386 49.4704 0.9948 49.1668C0.779579 48.8632 0.612398 48.5212 0.493258 48.1407C0.377961 47.7602 0.320312 47.3432 0.320312 46.8897C0.320312 46.4362 0.377961 46.0192 0.493258 45.6387C0.612398 45.2582 0.779579 44.9162 0.9948 44.6126C1.21386 44.309 1.4752 44.0438 1.77882 43.817C2.08244 43.5864 2.42064 43.3943 2.79343 43.2405C3.16623 43.0868 3.56785 42.9715 3.99829 42.8947C4.42873 42.8178 4.88031 42.7794 5.35303 42.7794C5.73351 42.7794 6.08517 42.7986 6.408 42.837C6.73083 42.8754 7.03829 42.9292 7.33037 42.9984C7.62246 43.0676 7.90302 43.1502 8.17204 43.2463C8.44491 43.3385 8.7197 43.4423 8.99642 43.5576V44.4223C8.77735 44.284 8.54291 44.1533 8.2931 44.0303C8.04329 43.9073 7.77235 43.7997 7.48026 43.7075C7.19202 43.6153 6.88264 43.5422 6.55212 43.4884C6.2216 43.4346 5.86802 43.4077 5.49139 43.4077C4.73042 43.4077 4.07131 43.4904 3.51404 43.6556C2.95677 43.8209 2.49558 44.0553 2.13048 44.3589C1.76921 44.6587 1.50019 45.0238 1.3234 45.4542C1.15045 45.8808 1.06398 46.3593 1.06398 46.8897C1.06398 47.4201 1.15045 47.8985 1.3234 48.3251C1.50019 48.7517 1.76921 49.1169 2.13048 49.4205C2.49558 49.7202 2.95677 49.9528 3.51404 50.118C4.07131 50.2794 4.73042 50.3601 5.49139 50.3601C5.86802 50.3601 6.22352 50.3332 6.55788 50.2794C6.89609 50.2256 7.21123 50.1526 7.50332 50.0604C7.79925 49.9681 8.0702 49.8624 8.31616 49.7433C8.56597 49.6203 8.79272 49.4916 8.99642 49.3571V50.216Z" fill="#1F2A33"/>
</svg>
