<svg width="40" height="40" viewBox="0 0 40 40" fill="none" xmlns="http://www.w3.org/2000/svg">
<rect width="40" height="40" rx="20" fill="#1F2A33"/>
<path d="M7.86816 31.6335L9.58305 25.4062C8.52283 23.5784 7.96665 21.5084 7.97245 19.3923C7.97245 12.7613 13.3952 7.37012 20.052 7.37012C23.2848 7.37012 26.3206 8.62134 28.5975 10.8932C30.8801 13.165 32.1373 16.1864 32.1315 19.398C32.1315 26.0289 26.7088 31.4202 20.0462 31.4202H20.0404C18.0185 31.4202 16.0313 30.9128 14.2642 29.9556L7.86816 31.6335ZM14.5713 27.7818L14.9363 28.0009C16.4774 28.9119 18.2444 29.3905 20.0462 29.3963H20.052C25.5848 29.3963 30.0922 24.9161 30.0922 19.4038C30.0922 16.7341 29.0494 14.2259 27.1549 12.3347C25.2604 10.4434 22.7344 9.40552 20.052 9.40552C14.5192 9.39975 10.0118 13.8799 10.0118 19.3923C10.0118 21.2777 10.539 23.1171 11.5471 24.7085L11.7846 25.0891L10.7707 28.7736L14.5713 27.7818Z" fill="white"/>
<path d="M8.29111 31.2126L9.94806 25.1986C8.9226 23.44 8.3838 21.4392 8.3838 19.398C8.3896 12.9977 13.6212 7.79102 20.052 7.79102C23.1747 7.79102 26.1005 9.00188 28.302 11.193C30.5036 13.3841 31.7144 16.3017 31.7144 19.4038C31.7144 25.804 26.477 31.0108 20.052 31.0108H20.0462C18.0938 31.0108 16.1761 30.5206 14.4728 29.5981L8.29111 31.2126Z" fill="#1F2A33"/>
<path d="M7.86816 31.6335L9.58305 25.4062C8.52283 23.5784 7.96665 21.5084 7.97245 19.3923C7.97245 12.7613 13.3952 7.37012 20.052 7.37012C23.2848 7.37012 26.3206 8.62134 28.5975 10.8932C30.8801 13.165 32.1373 16.1864 32.1315 19.398C32.1315 26.0289 26.7088 31.4202 20.0462 31.4202H20.0404C18.0185 31.4202 16.0313 30.9128 14.2642 29.9556L7.86816 31.6335ZM14.5713 27.7818L14.9363 28.0009C16.4774 28.9119 18.2444 29.3905 20.0462 29.3963H20.052C25.5848 29.3963 30.0922 24.9161 30.0922 19.4038C30.0922 16.7341 29.0494 14.2259 27.1549 12.3347C25.2604 10.4434 22.7344 9.40552 20.052 9.40552C14.5192 9.39975 10.0118 13.8799 10.0118 19.3923C10.0118 21.2777 10.539 23.1171 11.5471 24.7085L11.7846 25.0891L10.7707 28.7736L14.5713 27.7818Z" fill="white"/>
<path fill-rule="evenodd" clip-rule="evenodd" d="M17.0335 14.3641C16.8075 13.8624 16.57 13.8509 16.3556 13.8451C16.1818 13.8394 15.979 13.8394 15.7763 13.8394C15.5735 13.8394 15.249 13.9143 14.971 14.2141C14.6929 14.514 13.9165 15.2405 13.9165 16.7224C13.9165 18.1985 14.9999 19.6284 15.1506 19.8302C15.3012 20.0321 17.242 23.163 20.3068 24.3681C22.856 25.3714 23.3774 25.1696 23.9278 25.1177C24.4782 25.0658 25.7122 24.3912 25.9671 23.6877C26.2162 22.9843 26.2162 22.3846 26.1409 22.2577C26.0656 22.1309 25.8628 22.0559 25.5616 21.906C25.2603 21.7561 23.7771 21.0296 23.4991 20.9258C23.221 20.8278 23.0182 20.7759 22.8212 21.0757C22.6184 21.3755 22.0391 22.0502 21.8653 22.252C21.6915 22.4538 21.5119 22.4768 21.2106 22.3269C20.9093 22.177 19.936 21.8599 18.7831 20.8335C17.8851 20.0378 17.2768 19.0518 17.103 18.752C16.9292 18.4522 17.0856 18.2907 17.2362 18.1408C17.3695 18.0082 17.5375 17.7891 17.6881 17.6161C17.8388 17.4431 17.8909 17.3163 17.9894 17.1145C18.0879 16.9126 18.0415 16.7397 17.9662 16.5897C17.8909 16.4456 17.3 14.958 17.0335 14.3641Z" fill="white"/>
</svg>
