<svg width="40" height="40" viewBox="0 0 40 40" fill="none" xmlns="http://www.w3.org/2000/svg">
<path d="M39.9868 20.0007C39.9868 30.1019 32.5014 38.4529 22.7772 39.808C21.8679 39.9341 20.9377 40 19.9934 40C18.9034 40 17.8331 39.9131 16.7908 39.745C7.27109 38.2118 0 29.9548 0 20.0007C0 8.95491 8.95227 0 19.9948 0C31.0373 0 39.9896 8.95491 39.9896 20.0007H39.9868Z" fill="#1F2A33"/>
<path d="M8.11213 8.82129L17.3334 21.1536L8.05469 31.1805H10.1436L18.2678 22.4022L24.8314 31.1805H31.9386L22.199 18.1546L30.8361 8.82129H28.7472L21.2659 16.9059L15.2207 8.82129H8.11352H8.11213ZM11.1831 10.36H14.4474L28.8649 29.6418H25.6006L11.1831 10.36Z" fill="white"/>
</svg>
